<?xml version="1.0" encoding="UTF-8" standalone="no"?>
<!-- Created with Inkscape (http://www.inkscape.org/) -->

<svg
   width="61.447926mm"
   height="61.447929mm"
   viewBox="0 0 61.447926 61.447929"
   version="1.1"
   id="svg1"
   xml:space="preserve"
   xmlns="http://www.w3.org/2000/svg"
   xmlns:svg="http://www.w3.org/2000/svg"><defs
     id="defs1" /><g
     id="layer1"
     transform="translate(408.50474,-408.54668)"><g
       id="g3"
       style="fill:#333333;fill-opacity:1"
       transform="matrix(0.75644089,0,0,0.75644089,-356.46763,175.73288)"><g
         id="g4"
         transform="translate(3.4534277,-2.1251863)"><path
           id="path2"
           style="fill:#333333;fill-opacity:1"
           d="m -133.01524,102.05347 c -0.49817,-0.003 -0.99554,0.14911 -1.27544,0.4584 -0.38784,0.4285 -0.42981,3.92419 -0.46181,38.49699 -0.0194,20.91404 -0.076,38.02563 -0.1257,38.02563 -0.0497,0 -0.71358,-1.16144 -1.47561,-2.58027 -4.98295,-9.27779 -17.90709,-31.4122 -18.6931,-32.01457 -0.63545,-0.48702 -3.37161,-0.42671 -3.88372,0.0854 -0.36777,0.36777 -0.41604,2.07458 -0.41604,14.78068 0,7.90062 -0.11084,14.95007 -0.24662,15.66605 -0.79595,4.197 -2.73125,6.67195 -6.88549,8.80583 -1.4367,0.73799 -2.74134,1.34171 -2.8993,1.34171 -0.2019,0 -0.28692,-3.2594 -0.28692,-10.97962 0,-10.62742 -0.0173,-10.99758 -0.52944,-11.50975 -0.66458,-0.66458 -1.35184,-0.67222 -2.1533,-0.0239 -0.61794,0.49985 -0.62624,0.57452 -0.76377,6.94561 -0.12674,5.87123 -0.19157,6.57119 -0.7337,7.92661 -2.40116,6.00342 -7.75453,7.94072 -10.02594,3.62823 l -0.74327,-1.41071 -0.0642,-7.8057 c -0.0354,-4.29287 -0.0654,-8.0048 -0.0663,-8.24906 -0.004,-1.15551 -1.90031,-1.72256 -2.71553,-0.81227 -0.34582,0.38614 -0.42898,1.49754 -0.50348,6.69489 l -0.0895,6.2324 -0.97828,1.97772 c -1.67428,3.38645 -4.2778,5.51527 -6.76115,5.52807 -2.3692,0.0122 -2.68772,-1.48137 -1.49406,-7.00572 1.2738,-5.89524 0.91665,-9.1525 -1.21464,-11.078 -3.17244,-2.86611 -7.46911,-1.52076 -10.32038,3.23131 l -1.05684,1.76116 -0.0198,-1.85202 c -0.0441,-4.19486 -0.1918,-5.26673 -0.79383,-5.75488 -0.69165,-0.56086 -1.29871,-0.58783 -1.98319,-0.0881 -0.47732,0.34848 -0.52263,0.82972 -0.64558,6.81308 l -0.13253,6.43802 -0.77537,1.58765 c -0.95744,1.95986 -3.51465,4.5661 -5.31015,5.41193 -2.97191,1.40002 -6.07987,0.6083 -7.66223,-1.95108 l -0.80407,-1.30072 -0.0786,-6.96747 -0.0786,-6.96679 h 4.24579 c 3.96831,0 4.28218,-0.0364 4.80461,-0.55882 0.43464,-0.43461 0.52517,-0.76435 0.40853,-1.48312 -0.24818,-1.52938 -0.61318,-1.64492 -5.26711,-1.65392 l -4.16723,-0.008 v -8.59884 c 0,-8.24617 -0.022,-8.62082 -0.52944,-9.12828 -0.66465,-0.66468 -1.35193,-0.67245 -2.15329,-0.0239 l -0.62441,0.50553 -0.13253,8.68902 -0.13253,8.68833 -1.85202,0.14893 c -1.01865,0.0819 -2.1264,0.32028 -2.46209,0.52944 -0.88585,0.55199 -1.61534,1.85661 -1.80283,3.22448 -0.13652,0.99602 -0.0711,1.28627 0.39691,1.75433 0.30844,0.30844 0.78268,0.56087 1.0541,0.56087 0.60015,0 1.88823,-0.97103 1.88823,-1.42369 0,-0.63457 0.67233,-1.19132 1.65323,-1.36767 l 0.99262,-0.1783 v 4.48626 c 0,4.83287 -0.27345,6.22508 -1.699,8.65759 -1.34722,2.29886 -4.94897,4.89735 -6.79805,4.90435 -0.38055,0.001 -0.99722,-0.23727 -1.3704,-0.53081 l -0.67905,-0.53423 -0.0847,-7.33774 -0.0847,-7.33705 -0.787,-1.42096 c -1.29722,-2.34216 -3.35692,-3.53873 -6.09235,-3.53873 -2.69341,0 -4.79803,1.2451 -6.64297,3.92881 l -1.02951,1.49747 -0.13253,-2.47369 c -0.12642,-2.36345 -0.16481,-2.49097 -0.86009,-2.87881 -0.65401,-0.36482 -0.8011,-0.36524 -1.45512,0 l -0.72755,0.40648 -0.13185,5.67904 c -0.13087,5.61794 -0.14081,5.69629 -0.90723,7.2667 -0.69947,1.43323 -1.87017,2.79812 -3.30099,3.94178 0.32155,0.66005 0.63748,1.32258 0.91952,2.00027 0.17404,0.46265 0.36107,0.91919 0.55472,1.37314 0.45083,-0.31032 0.88591,-0.62461 1.2126,-0.93865 0.92324,-0.88749 1.26081,-1.08629 1.27271,-0.74942 0.0963,2.73429 0.26077,4.12305 0.52535,4.44186 0.3893,0.4691 2.20473,0.50515 2.5707,0.0512 0.14666,-0.1819 0.32056,-2.41376 0.38666,-4.96037 0.11299,-4.35462 0.17132,-4.77952 0.97213,-7.13825 1.95314,-5.75284 5.01997,-8.87168 7.81731,-7.94848 1.05296,0.34751 1.57843,0.8905 2.12119,2.1895 0.32538,0.77876 0.40977,2.20825 0.41877,7.13348 0.006,3.38803 0.1118,6.67893 0.23432,7.31314 0.26215,1.35695 0.91483,2.31558 2.15945,3.17051 0.82229,0.56485 1.12359,0.61098 3.41576,0.51988 2.17903,-0.0866 2.70441,-0.20431 3.94793,-0.884 1.47528,-0.80637 3.836,-2.92045 4.56893,-4.0914 l 0.41399,-0.66129 0.4092,0.97623 c 0.57672,1.3762 2.45463,3.32358 3.9213,4.0668 3.45916,1.75289 8.38745,1.06696 11.56987,-1.61087 l 0.83344,-0.7016 v 0.99536 c 0,0.55444 0.19319,1.20869 0.43722,1.47834 0.46082,0.5092 1.56194,0.63421 2.17379,0.24662 0.20492,-0.12982 0.62578,-1.59244 0.97008,-3.36931 1.16474,-6.01125 3.46952,-11.51577 5.90243,-14.09753 1.94333,-2.06225 3.55197,-2.06873 4.62289,-0.0178 0.61621,1.18012 0.48463,3.20842 -0.48982,7.54678 -0.95271,4.24151 -0.85609,6.8003 0.31152,8.24291 1.4989,1.85194 1.98048,2.06449 4.67823,2.06449 2.97356,0 4.20673,-0.52172 6.66073,-2.81732 0.91033,-0.85156 1.71491,-1.54802 1.78781,-1.54802 0.0729,0 0.28214,0.36028 0.46455,0.80065 0.45378,1.09555 2.74058,3.0966 3.95408,3.46017 1.39671,0.41846 4.68463,0.19011 5.92293,-0.41126 0.55905,-0.2715 1.64731,-1.07014 2.41836,-1.77483 0.77104,-0.7047 1.47435,-1.28091 1.56305,-1.28091 0.20693,0 0.21028,2.87064 0.005,3.86937 -0.11414,0.55466 -0.66908,1.13505 -2.05014,2.14305 -2.63636,1.92424 -5.54436,4.52793 -7.24346,6.48585 -4.71965,5.43862 -6.28073,10.93916 -4.54501,16.01651 1.05663,3.09088 3.42055,5.2594 6.40865,5.87989 3.97569,0.82556 8.24713,-1.59163 9.70691,-5.49323 0.9536,-2.54872 1.05489,-3.81515 1.05889,-13.26135 0.002,-5.03699 0.0912,-9.29409 0.19811,-9.46029 0.10691,-0.16621 1.32558,-0.80686 2.70802,-1.42369 4.84273,-2.1608 7.41388,-4.31427 8.9978,-7.53517 1.64664,-3.34845 1.66902,-3.56303 1.83289,-17.59459 l 0.14961,-12.83233 2.54201,4.23349 c 3.72542,6.20443 10.43756,17.99507 17.363,30.49865 0.50535,0.91238 1.13734,1.77564 1.40388,1.91829 0.81483,0.43608 1.98953,0.2975 2.52835,-0.29785 0.49044,-0.54194 0.50634,-1.66654 0.57384,-41.84581 0.0643,-38.23078 0.0369,-41.32477 -0.37163,-41.77613 -0.28312,-0.31286 -0.78205,-0.47163 -1.28023,-0.47479 z m 34.879708,41.54864 c -0.417726,0.008 -0.820519,0.17768 -1.150428,0.50758 -0.50737,0.50739 -0.52876,0.88173 -0.52876,9.09959 0,9.721 0.225007,8.89191 -2.41631,8.89191 -2.58261,0 -3.17674,0.51278 -3.79013,3.26957 -0.22927,1.03039 0.4409,2.02213 1.36631,2.02213 0.73493,0 1.92922,-0.9134 1.92922,-1.47561 0,-0.45382 2.6692,-0.62336 2.839179,-0.18035 0.0693,0.18043 0.07954,1.78742 0.02254,3.57152 -0.09217,2.8857 -0.181419,3.39376 -0.810219,4.60308 -1.34104,2.57911 -3.64662,3.92616 -6.42094,3.75119 l -1.31917,-0.0833 -0.16191,-3.30714 c -0.22964,-4.67546 -1.12247,-7.00248 -3.54283,-9.23349 -1.68126,-1.54973 -3.28067,-2.20916 -5.68792,-2.34662 -2.83192,-0.16171 -4.63041,0.55337 -6.77004,2.69298 -2.32606,2.32606 -3.28391,5.10648 -3.28391,9.52929 0,5.8468 2.88501,10.38383 7.4081,11.6498 h 6.8e-4 c 2.07579,0.58099 4.95117,0.37218 6.70583,-0.48709 1.59765,-0.78239 3.38886,-2.51912 4.09481,-3.97048 l 0.49938,-1.02678 2.61784,-0.0403 c 2.79223,-0.043 4.28227,-0.49989 6.06845,-1.86228 l 0.832754,-0.63601 0.314934,1.36289 c 0.406859,1.76264 1.314656,3.29129 2.697085,4.54023 1.514128,1.36793 3.110045,2.01576 5.389388,2.18814 3.156657,0.23874 5.781009,-0.62044 8.529156,-2.79273 l 1.338296,-1.05752 1.291841,1.07528 c 3.992736,3.3247 9.630446,3.72786 15.404401,1.10056 2.046708,-0.93131 4.765865,-2.75077 5.843684,-3.91036 l 0.64148,-0.68999 h 19.550452 c 12.819658,0 19.724386,-0.0937 20.055985,-0.27121 1.119979,-0.5994 1.271706,-2.35903 0.250717,-2.90545 -0.28294,-0.15143 -8.484164,-0.27626 -20.571082,-0.31356 -17.287852,-0.0533 -20.174389,-0.008 -20.631199,0.32518 -0.292109,0.21282 -1.34055,1.06841 -2.329549,1.90189 -4.614085,3.88853 -10.673801,5.25489 -14.374207,3.24088 -1.531529,-0.83356 -2.012512,-1.29647 -1.764582,-1.69764 0.09245,-0.14958 1.44185,-0.92563 2.999038,-1.72496 4.796195,-2.46194 6.943616,-4.55439 7.867865,-7.66565 0.467979,-1.5753 0.493509,-2.93807 0.07788,-4.14537 -2.304857,-6.69522 -11.785288,-5.91079 -15.175545,1.25564 -1.330678,2.81281 -1.787958,6.7818 -1.148379,9.96651 0.28693,1.42872 0.272494,1.51796 -0.330645,2.02759 -2.608878,2.20444 -5.45839,3.33743 -7.595287,3.02022 -1.673784,-0.24847 -3.46384,-1.56442 -4.269019,-3.1384 -0.659999,-1.29026 -0.674467,-1.4393 -0.755566,-8.00381 l -0.08266,-6.68875 h 4.191139 c 4.806521,0 5.366845,-0.17898 5.366845,-1.71539 0,-0.65039 -0.190548,-1.04195 -0.703647,-1.44555 -0.655639,-0.51572 -0.913981,-0.54125 -3.794228,-0.37847 -1.699983,0.096 -3.53441,0.0914 -4.07637,-0.0103 l -0.985105,-0.18513 0.0567,-8.62822 0.0567,-8.62889 -0.597758,-0.48436 c -0.390715,-0.31637 -0.823562,-0.47033 -1.241288,-0.46249 z m -179.091788,0.77196 c -5.30429,0 -6.38576,0.0699 -7.77222,0.50143 -5.94857,1.85141 -9.03447,7.81276 -7.16969,13.85023 0.65662,2.12589 1.83731,3.69586 3.91993,5.21246 l 1.61292,1.17434 -1.24402,0.84164 c -3.23581,2.18776 -5.57535,5.82172 -5.85734,9.09754 l -0.14961,1.73384 -21.43117,0.0635 -21.43117,0.0635 -0.46318,0.56087 c -0.60786,0.73672 -0.58452,1.33511 0.0854,2.18677 l 0.54857,0.6975 h 21.83902 21.83832 l 1.73043,1.86842 c 1.94186,2.09738 3.7709,3.1687 6.61086,3.87348 2.54868,0.63253 12.00268,0.61186 15.01501,-0.0328 1.32485,-0.28353 2.75986,-0.80415 4.075,-1.42916 -0.2424,-0.55848 -0.47628,-1.12053 -0.69135,-1.6908 -0.21349,-0.52347 -0.4537,-1.03528 -0.70091,-1.54393 -0.88787,0.48202 -1.81537,0.88985 -2.77019,1.17024 -3.94648,1.15894 -12.24681,1.10399 -15.47135,-0.10247 -1.79569,-0.67186 -4.05198,-2.62928 -4.71648,-4.09208 -0.70121,-1.5436 -0.63649,-3.65896 0.16464,-5.37982 0.8571,-1.84108 3.41238,-4.38163 5.25549,-5.22544 1.2563,-0.57515 1.58831,-0.6256 2.59188,-0.39418 1.82357,0.42049 5.9403,0.34605 6.8486,-0.12365 1.41795,-0.73323 1.37267,-2.6869 -0.0827,-3.57425 -0.73334,-0.44716 -1.3403,-0.51971 -4.33187,-0.52056 -3.3672,-9.6e-4 -3.5281,-0.0271 -5.02663,-0.81159 -0.85152,-0.4458 -2.00897,-1.24998 -2.57207,-1.78644 -3.65413,-3.48129 -2.82458,-9.49076 1.62795,-11.79326 1.34321,-0.69461 3.8201,-0.95573 9.06885,-0.95573 5.76899,0 5.83532,-0.019 5.88262,-1.68875 0.0494,-1.74289 0.019,-1.75092 -6.83357,-1.75092 z m 203.51175,21.48856 c 1.242343,-0.0385 2.351112,0.51329 2.989474,1.76458 0.63502,1.24474 0.68322,2.09789 0.186501,3.27981 -0.44101,1.04935 -2.283162,2.77247 -4.02445,3.76417 -0.71842,0.40915 -2.173864,1.26077 -3.234043,1.89233 -1.060189,0.63157 -1.980558,1.14838 -2.045358,1.14838 -0.69008,0 -0.417308,-5.48688 0.360021,-7.24414 1.255343,-2.83792 3.697283,-4.54104 5.767855,-4.60513 z m -42.67652,0.41057 c 0.63209,0.13005 1.66187,0.83262 2.4327,1.73316 1.23221,1.43957 1.87797,3.29776 2.10821,6.06707 0.10644,1.28077 0.0902,2.31506 -0.0369,2.31452 -0.43966,-0.002 -1.82407,-1.00087 -2.79614,-2.01803 -1.49829,-1.56777 -2.37207,-3.72171 -2.40607,-5.92976 -0.0156,-1.01242 0.0845,-1.95433 0.22271,-2.0925 0.0979,-0.0978 0.26478,-0.11781 0.47548,-0.0745 z m -4.36261,0.32586 c 0.20792,0 0.25759,0.32436 0.15302,0.99262 -0.23136,1.47858 0.29253,4.14628 1.19074,6.06571 0.98051,2.09529 3.31637,4.49896 5.24114,5.39349 1.2359,0.57459 1.37131,0.71754 1.23787,1.30687 -0.20661,0.91251 -1.36144,2.08769 -2.62603,2.67318 -2.91923,1.35156 -6.37196,-0.1186 -7.98264,-3.39869 -0.70473,-1.43515 -0.74805,-1.72344 -0.74805,-4.9631 0,-3.09202 0.0634,-3.56987 0.63192,-4.72468 0.67347,-1.36806 2.38898,-3.3454 2.90203,-3.3454 z m -52.5105,25.40029 c 0.28555,0 0.17493,15.78239 -0.12024,17.15874 -0.44495,2.07471 -1.6029,3.65898 -3.22721,4.41521 -0.76251,0.355 -1.68428,0.63687 -2.04809,0.62577 -1.98757,-0.0606 -3.64408,-1.24318 -4.66525,-3.33037 -1.95679,-3.99953 -0.17035,-9.28733 4.88454,-14.45755 1.68967,-1.72823 4.83835,-4.4118 5.17625,-4.4118 z" /></g><path
         style="fill:#000000;stroke:#333333;stroke-width:13.2198;stroke-linecap:round;stroke-linejoin:round;stroke-dasharray:none;stroke-opacity:1"
         d="m -251.32374,348.19875 c 68.01316,0.38595 68.01316,0.38595 68.01316,0.38595"
         id="path1" /><g
         id="g5"><path
           style="fill:#000000;stroke:#333333;stroke-width:13.2198;stroke-linecap:round;stroke-linejoin:round;stroke-dasharray:none;stroke-opacity:1"
           d="M -62.182161,348.19875 C 5.8309989,348.5847 5.8309989,348.5847 5.8309989,348.5847"
           id="path3" /><path
           style="fill:#000000;stroke:#333333;stroke-width:13.2198;stroke-linecap:round;stroke-linejoin:round;stroke-dasharray:none;stroke-opacity:1"
           d="m -28.368556,382.3983 c 0.38595,-68.01316 0.38595,-68.01316 0.38595,-68.01316"
           id="path4" /></g></g></g></svg>
