<?xml version="1.0" encoding="UTF-8" standalone="no"?>
<!-- Created with Inkscape (http://www.inkscape.org/) -->

<svg
   width="242.06781mm"
   height="87.373711mm"
   viewBox="0 0 242.06781 87.373711"
   version="1.1"
   id="svg1"
   xml:space="preserve"
   xmlns:inkscape="http://www.inkscape.org/namespaces/inkscape"
   xmlns:sodipodi="http://sodipodi.sourceforge.net/DTD/sodipodi-0.dtd"
   xmlns="http://www.w3.org/2000/svg"
   xmlns:svg="http://www.w3.org/2000/svg"><sodipodi:namedview
     id="namedview1"
     pagecolor="#505050"
     bordercolor="#ffffff"
     borderopacity="1"
     inkscape:showpageshadow="0"
     inkscape:pageopacity="0"
     inkscape:pagecheckerboard="1"
     inkscape:deskcolor="#505050"
     inkscape:document-units="mm" /><defs
     id="defs1" /><g
     inkscape:label="Layer 1"
     inkscape:groupmode="layer"
     id="layer1"
     transform="translate(614.15327,-252.36173)"><g
       id="g2"
       transform="matrix(0.75644089,0,0,0.75644089,-358.74109,175.16452)"
       style="fill:#333333;fill-opacity:1"><g
         id="g3"
         style="fill:#333333;fill-opacity:1"><path
           style="fill:#333333;fill-opacity:1"
           d="m -180.4265,217.39839 c -2.9881,-0.62049 -5.35189,-2.78946 -6.40852,-5.88035 -1.73572,-5.07735 -0.17504,-10.57744 4.54462,-16.01606 1.6991,-1.95792 4.60704,-4.5618 7.24341,-6.48604 1.38106,-1.008 1.93639,-1.58841 2.05053,-2.14307 0.2055,-0.99874 0.20193,-3.86953 -0.005,-3.86953 -0.0887,0 -0.7922,0.57656 -1.56324,1.28126 -0.77105,0.70469 -1.8593,1.50339 -2.41835,1.77489 -1.2383,0.60137 -4.52635,0.82961 -5.92306,0.41115 -1.2135,-0.36357 -3.50027,-2.36483 -3.95406,-3.46038 -0.18241,-0.44037 -0.39133,-0.80067 -0.46427,-0.80067 -0.0729,0 -0.87743,0.69673 -1.78776,1.54829 -2.454,2.2956 -3.68755,2.81733 -6.66112,2.81733 -2.69775,0 -3.17896,-0.21235 -4.67786,-2.06429 -1.16761,-1.44262 -1.26436,-4.00164 -0.31165,-8.24316 0.97445,-4.33836 1.10611,-6.36643 0.4899,-7.54656 -1.07092,-2.05097 -2.67957,-2.04495 -4.6229,0.0173 -2.43291,2.58177 -4.73751,8.08629 -5.90226,14.09754 -0.3443,1.77687 -0.76562,3.23957 -0.97054,3.36939 -0.61185,0.3876 -1.71237,0.26285 -2.17319,-0.24635 -0.24403,-0.26965 -0.43788,-0.92429 -0.43788,-1.47873 v -0.99487 l -0.83318,0.70107 c -3.18242,2.67783 -8.11078,3.36418 -11.56994,1.61129 -1.46667,-0.74322 -3.34461,-2.69104 -3.92133,-4.06724 l -0.40909,-0.97621 -0.41403,0.66146 c -0.73293,1.17095 -3.09378,3.28495 -4.56906,4.09132 -1.24352,0.67969 -1.76892,0.79733 -3.94796,0.88397 -2.29217,0.0911 -2.59295,0.0454 -3.41525,-0.51945 -1.24462,-0.85493 -1.89762,-1.8135 -2.15977,-3.17045 -0.12252,-0.63421 -0.22795,-3.92513 -0.23429,-7.31316 -0.009,-4.92523 -0.0931,-6.35531 -0.41848,-7.13407 -0.54276,-1.299 -1.06839,-1.84136 -2.12135,-2.18887 -2.79734,-0.9232 -5.86451,2.19506 -7.81765,7.9479 -0.80081,2.35874 -0.85865,2.7836 -0.97164,7.13823 -0.0661,2.54661 -0.24013,4.77903 -0.38679,4.96093 -0.36597,0.45392 -2.18172,0.4175 -2.57102,-0.0516 -0.26458,-0.31881 -0.42876,-1.7076 -0.5251,-4.44189 -0.0119,-0.33687 -0.34969,-0.13795 -1.27293,0.74954 -1.58228,1.52102 -4.8461,3.1081 -7.60677,3.69889 -3.01233,0.64466 -12.46642,0.66533 -15.0151,0.0328 -2.83997,-0.70478 -4.66916,-1.77669 -6.61102,-3.87407 l -1.72986,-1.86841 h -21.83874 -21.83874 l -0.54837,-0.69714 c -0.66991,-0.85166 -0.69326,-1.4499 -0.0854,-2.18662 l 0.46302,-0.56113 21.43125,-0.0635 21.43125,-0.0635 0.14929,-1.7342 c 0.28199,-3.27582 2.62162,-6.90954 5.85744,-9.0973 l 1.24423,-0.84123 -1.61296,-1.17459 c -2.08262,-1.5166 -3.26347,-3.08684 -3.92009,-5.21273 -1.86479,-6.03748 1.22113,-11.99873 7.1697,-13.85014 1.38646,-0.43151 2.46801,-0.50127 7.77231,-0.50127 6.85261,0 6.88286,0.008 6.83345,1.75089 -0.0473,1.66974 -0.11338,1.6887 -5.88238,1.6887 -5.24875,0 -7.72606,0.26103 -9.06927,0.95564 -4.45254,2.3025 -5.28217,8.31241 -1.62804,11.7937 0.5631,0.53646 1.72052,1.34014 2.57204,1.78594 1.49853,0.78454 1.65987,0.81058 5.02708,0.81154 2.99157,8.5e-4 3.59832,0.0738 4.33166,0.52096 1.45533,0.88735 1.50045,2.84105 0.0825,3.57428 -0.9083,0.4697 -5.02522,0.54385 -6.84879,0.12336 -1.00357,-0.23142 -1.33543,-0.18094 -2.59173,0.39421 -1.84311,0.84381 -4.39788,3.38409 -5.25498,5.22517 -0.80113,1.72087 -0.86589,3.83661 -0.16468,5.38021 0.6645,1.4628 2.92036,3.42014 4.71606,4.092 3.22454,1.20646 11.52493,1.26144 15.47142,0.1025 3.5691,-1.04813 6.89296,-3.68107 8.30843,-6.58139 0.76642,-1.57041 0.77618,-1.64863 0.90705,-7.26657 l 0.13229,-5.67907 0.7276,-0.40635 c 0.65402,-0.36524 0.8012,-0.36529 1.45521,-4.7e-4 0.69528,0.38784 0.73348,0.51576 0.8599,2.87921 l 0.13229,2.47333 1.02939,-1.49737 c 1.84494,-2.68371 3.95011,-3.92858 6.64353,-3.92858 2.73543,0 4.79496,1.19617 6.09219,3.53833 l 0.78697,1.42087 0.0848,7.33764 0.0848,7.33764 0.67851,0.53372 c 0.37318,0.29354 0.98987,0.53255 1.37043,0.53113 1.84908,-0.007 5.45116,-2.60539 6.79838,-4.90425 1.42555,-2.43251 1.69875,-3.8249 1.69875,-8.65778 v -4.48595 l -0.99219,0.17839 c -0.9809,0.17635 -1.65365,0.73251 -1.65365,1.36708 0,0.45266 -1.28761,1.42384 -1.88776,1.42384 -0.27142,0 -0.74584,-0.25235 -1.05428,-0.56079 -0.46806,-0.46806 -0.53375,-0.75812 -0.39723,-1.75414 0.18749,-1.36787 0.91703,-2.67276 1.80289,-3.22475 0.33569,-0.20916 1.44378,-0.44729 2.46243,-0.52916 l 1.85208,-0.14887 0.13229,-8.68877 0.13229,-8.68878 0.62463,-0.50549 c 0.80137,-0.64854 1.48885,-0.64098 2.1535,0.0237 0.50745,0.50746 0.52916,0.88195 0.52916,9.12813 v 8.59895 l 4.16719,0.008 c 4.65393,0.009 5.01919,0.12405 5.26737,1.65343 0.11664,0.71877 0.0257,1.04876 -0.40894,1.48337 -0.52243,0.52243 -0.83631,0.55895 -4.80462,0.55895 h -4.24567 l 0.0785,6.96686 0.0785,6.96686 0.80459,1.30137 c 1.58237,2.55938 4.69015,3.35051 7.66207,1.95049 1.7955,-0.84583 4.35244,-3.45176 5.30988,-5.41162 l 0.77554,-1.5875 0.13229,-6.43807 c 0.12295,-5.98336 0.16856,-6.46454 0.64588,-6.81302 0.68448,-0.49971 1.29154,-0.47276 1.9832,0.0881 0.60203,0.48815 0.74988,1.55982 0.79394,5.75468 l 0.0195,1.85209 1.05683,-1.76138 c 2.85128,-4.75207 7.14818,-6.09739 10.32062,-3.23128 2.1313,1.9255 2.48845,5.18283 1.21465,11.07807 -1.19366,5.52436 -0.87514,7.01789 1.49406,7.00565 2.48336,-0.0128 5.08681,-2.14141 6.7611,-5.52786 l 0.97797,-1.97806 0.0894,-6.23216 c 0.0745,-5.19735 0.15821,-6.30903 0.50403,-6.69517 0.81522,-0.91029 2.71131,-0.34286 2.71551,0.81265 8.9e-4,0.24427 0.0307,3.95646 0.0661,8.24933 l 0.0645,7.80521 0.74307,1.41078 c 2.27142,4.3125 7.62475,2.37522 10.02591,-3.6282 0.54213,-1.35543 0.60693,-2.05556 0.73367,-7.9268 0.13753,-6.3711 0.1457,-6.44546 0.76364,-6.94531 0.80146,-0.64831 1.48892,-0.64068 2.1535,0.0239 0.51217,0.51217 0.52917,0.88195 0.52917,11.50938 0,7.72023 0.0853,10.98021 0.2872,10.98021 0.15796,0 1.46269,-0.60381 2.89939,-1.3418 4.15424,-2.13388 6.08933,-4.60872 6.88528,-8.80573 0.13578,-0.71598 0.24688,-7.76593 0.24688,-15.66656 0,-12.70611 0.048,-14.41279 0.41577,-14.78056 0.51211,-0.51211 3.24795,-0.57202 3.8834,-0.085 0.78601,0.60237 13.71015,22.73678 18.6931,32.01458 0.76203,1.41883 1.42618,2.57969 1.47589,2.57969 0.0497,0 0.10622,-17.11151 0.12559,-38.02557 0.032,-34.57284 0.0739,-38.06837 0.46174,-38.49688 0.5598,-0.61857 1.98948,-0.60953 2.55572,0.0162 0.40848,0.45136 0.43601,3.5456 0.37174,41.77642 -0.0675,40.17931 -0.083,41.30392 -0.57344,41.84586 -0.53882,0.59535 -1.7141,0.73363 -2.52893,0.29755 -0.26654,-0.14265 -0.89808,-1.00585 -1.40343,-1.91823 -6.92545,-12.5036 -13.63798,-24.29401 -17.3634,-30.49844 l -2.54188,-4.23334 -0.14985,12.83229 c -0.16387,14.03157 -0.18624,14.24634 -1.83289,17.59479 -1.58392,3.22091 -4.15473,5.37371 -8.99747,7.53451 -1.38244,0.61683 -2.60101,1.25751 -2.70792,1.42372 -0.10692,0.1662 -0.19621,4.42336 -0.19844,9.46035 -0.004,9.44621 -0.1053,10.71266 -1.0589,13.26138 -1.45978,3.9016 -5.73102,6.31878 -9.70671,5.49322 z m 3.81357,-3.82485 c 1.62431,-0.75623 2.78253,-2.34079 3.22748,-4.41551 0.29517,-1.37635 0.40555,-17.15886 0.12,-17.15886 -0.3379,0 -3.48663,2.68385 -5.1763,4.41208 -5.0549,5.17023 -6.84132,10.45764 -4.88453,14.45717 1.02117,2.08719 2.67793,3.26986 4.6655,3.33042 0.36381,0.0111 1.28534,-0.2703 2.04785,-0.6253 z m 56.16048,-27.00953 c -4.52309,-1.26597 -7.40833,-5.80314 -7.40833,-11.64994 0,-4.42282 0.95808,-7.20262 3.28414,-9.52868 2.13963,-2.13962 3.9381,-2.85515 6.77002,-2.69344 2.40725,0.13746 4.0063,0.79733 5.68757,2.34707 2.42036,2.23101 3.31306,4.5576 3.5427,9.23307 l 0.16244,3.30729 1.31877,0.0832 c 2.77433,0.17497 5.07963,-1.17175 6.42068,-3.75087 0.6288,-1.20932 0.718279,-1.71751 0.810449,-4.60322 0.057,-1.7841 0.047,-3.39144 -0.0223,-3.57187 -0.169979,-0.44301 -2.839099,-0.27329 -2.839099,0.18053 0,0.56221 -1.19425,1.47579 -1.92918,1.47579 -0.92541,0 -1.59569,-0.99211 -1.36642,-2.0225 0.61339,-2.75679 1.20738,-3.26916 3.78999,-3.26916 2.641319,0 2.416019,0.82916 2.416019,-8.89185 0,-8.21787 0.0218,-8.59243 0.52917,-9.09982 0.65982,-0.65981 1.6101,-0.67765 2.39153,-0.0449 l 0.59808,0.4843 -0.0569,8.62859 -0.0569,8.62859 0.98538,0.18486 c 0.54196,0.10167 2.37628,0.10625 4.076265,0.0102 2.88025,-0.16278 3.13882,-0.13697 3.79446,0.37875 0.5131,0.4036 0.70357,0.79488 0.70357,1.44527 0,1.53642 -0.56052,1.71559 -5.367045,1.71559 h -4.19097 l 0.0827,6.68893 c 0.0811,6.56452 0.0952,6.71339 0.7552,8.00365 0.80518,1.57398 2.59517,2.88993 4.268955,3.1384 2.1369,0.31721 4.9867,-0.81606 7.59558,-3.0205 0.60314,-0.50963 0.61766,-0.59862 0.33073,-2.02734 -0.63958,-3.18471 -0.18222,-7.15392 1.14846,-9.96673 3.39026,-7.16644 12.87029,-7.9508 15.17515,-1.25557 0.41563,1.2073 0.38998,2.57052 -0.078,4.14582 -0.92425,3.11126 -3.07141,5.20316 -7.86761,7.66511 -1.55719,0.79933 -2.90689,1.57571 -2.99934,1.72529 -0.24793,0.40117 0.23327,0.86406 1.7648,1.69762 3.70041,2.01401 9.76029,0.64781 14.37438,-3.24072 0.989,-0.83348 2.03719,-1.68954 2.3293,-1.90236 0.45681,-0.33281 3.34373,-0.37827 20.6316,-0.32495 12.08693,0.0373 20.28806,0.16239 20.571,0.31382 1.02099,0.54642 0.86896,2.30615 -0.25102,2.90555 -0.3316,0.17747 -7.23648,0.27065 -20.05615,0.27065 h -19.55044 l -0.64143,0.6901 c -1.07782,1.1596 -3.79636,2.97883 -5.84307,3.91014 -5.77396,2.6273 -11.41211,2.2247 -15.40485,-1.1 l -1.2919,-1.07576 -1.33827,1.05784 c -2.74815,2.17229 -5.3722,3.03154 -8.52886,2.7928 -2.279345,-0.17238 -3.875185,-0.82036 -5.389315,-2.18829 -1.38243,-1.24894 -2.29072,-2.77768 -2.69758,-4.54032 l -0.31452,-1.36255 -0.833179,0.63549 c -1.78618,1.36239 -3.27574,1.81963 -6.06797,1.86264 l -2.6181,0.0403 -0.49933,1.02656 c -0.70595,1.45136 -2.49681,3.18791 -4.09447,3.9703 -1.75466,0.85927 -4.63068,1.06821 -6.70647,0.48722 z m 4.89479,-3.53312 c 1.2646,-0.58549 2.41896,-1.76087 2.62557,-2.67338 0.13344,-0.58933 -0.002,-0.73179 -1.2379,-1.30638 -1.92477,-0.89453 -4.26046,-3.2982 -5.24097,-5.39349 -0.89821,-1.91944 -1.42185,-4.5877 -1.19049,-6.06628 0.10457,-0.66827 0.0545,-0.99219 -0.15342,-0.99219 -0.51305,0 -2.22817,1.97754 -2.90165,3.3456 -0.56849,1.15481 -0.63239,1.63216 -0.63239,4.72419 0,3.23966 0.0435,3.52815 0.74823,4.96331 1.61068,3.28009 5.06379,4.75018 7.98302,3.39862 z m 37.759884,-6.46752 c 1.06018,-0.63156 2.51541,-1.48306 3.23383,-1.89221 1.74129,-0.9917 3.5835,-2.71466 4.02451,-3.76401 0.49672,-1.18192 0.44808,-2.03546 -0.18694,-3.2802 -1.7023,-3.33677 -6.74871,-1.69957 -8.75726,2.8411 -0.77733,1.75727 -1.0497,7.24362 -0.35962,7.24362 0.0648,0 0.98529,-0.51673 2.04548,-1.1483 z m -34.053304,-2.48972 c -0.23024,-2.76932 -0.87588,-4.62745 -2.10809,-6.06702 -1.02778,-1.20072 -2.51671,-2.04991 -2.9082,-1.65864 -0.13825,0.13817 -0.23861,1.07956 -0.22301,2.09198 0.034,2.20805 0.90816,4.36204 2.40645,5.92981 0.97207,1.01716 2.35593,2.01609 2.79559,2.01799 0.12709,5.4e-4 0.14374,-1.03335 0.0373,-2.31412 z"
           id="path2" /></g></g></g></svg>
